HIERARCHY
ROOT root
{
	OFFSET 0.000000 0.000000 0.000000
	CHANNELS 6 Xposition Yposition Zposition Zrotation Yrotation Xrotation
	JOINT lhip
	{
		OFFSET 0.058581 -0.082280 -0.017664
		CHANNELS 3 Zrotation Yrotation Xrotation
		JOINT lknee
		{
			OFFSET 0.043451 -0.386469 0.008037
			CHANNELS 3 Zrotation Yrotation Xrotation
			JOINT lankle
			{
				OFFSET -0.014790 -0.426874 -0.037428
				CHANNELS 3 Zrotation Yrotation Xrotation
				JOINT ltoe
				{
					OFFSET 0.041054 -0.060286 0.122042
					CHANNELS 3 Zrotation Yrotation Xrotation
					End Site
					{
						OFFSET 0.000000 0.000000 0.000000
					}
				}
			}
		}
	}
	JOINT rhip
	{
		OFFSET -0.060310 -0.090513 -0.013543
		CHANNELS 3 Zrotation Yrotation Xrotation
		JOINT rknee
		{
			OFFSET -0.043257 -0.383688 -0.004843
			CHANNELS 3 Zrotation Yrotation Xrotation
			JOINT rankle
			{
				OFFSET 0.019056 -0.420046 -0.034562
				CHANNELS 3 Zrotation Yrotation Xrotation
				JOINT rtoe
				{
					OFFSET -0.034840 -0.062106 0.130323
					CHANNELS 3 Zrotation Yrotation Xrotation
					End Site
					{
						OFFSET 0.000000 0.000000 0.000000
					}
				}
			}
		}
	}
	JOINT lowerback
	{
		OFFSET 0.004439 0.124404 -0.038385
		CHANNELS 3 Zrotation Yrotation Xrotation
		JOINT upperback
		{
			OFFSET 0.004488 0.137956 0.026820
			CHANNELS 3 Zrotation Yrotation Xrotation
			JOINT chest
			{
				OFFSET -0.002265 0.056032 0.002855
				CHANNELS 3 Zrotation Yrotation Xrotation
				JOINT lowerneck
				{
					OFFSET -0.013390 0.211636 -0.033468
					CHANNELS 3 Zrotation Yrotation Xrotation
					JOINT upperneck
					{
						OFFSET 0.010113 0.088937 0.050410
						CHANNELS 3 Zrotation Yrotation Xrotation
						End Site
						{
							OFFSET 0.000000 0.000000 0.000000
						}
					}
				}
				JOINT lclavicle
				{
					OFFSET 0.071702 0.114000 -0.018898
					CHANNELS 3 Zrotation Yrotation Xrotation
					JOINT lshoulder
					{
						OFFSET 0.122921 0.045205 -0.019046
						CHANNELS 3 Zrotation Yrotation Xrotation
						JOINT lelbow
						{
							OFFSET 0.255332 -0.015649 -0.022946
							CHANNELS 3 Zrotation Yrotation Xrotation
							JOINT lwrist
							{
								OFFSET 0.265709 0.012698 -0.007375
								CHANNELS 3 Zrotation Yrotation Xrotation
								End Site
								{
									OFFSET 0.000000 0.000000 0.000000
								}
							}
						}
					}
				}
				JOINT rclavicle
				{
					OFFSET -0.082954 0.112472 -0.023707
					CHANNELS 3 Zrotation Yrotation Xrotation
					JOINT rshoulder
					{
						OFFSET -0.113228 0.046853 -0.008472
						CHANNELS 3 Zrotation Yrotation Xrotation
						JOINT relbow
						{
							OFFSET -0.260127 -0.014369 -0.031269
							CHANNELS 3 Zrotation Yrotation Xrotation
							JOINT rwrist
							{
								OFFSET -0.269108 0.006794 -0.006027
								CHANNELS 3 Zrotation Yrotation Xrotation
								End Site
								{
									OFFSET 0.000000 0.000000 0.000000
								}
							}
						}
					}
				}
			}
		}
	}
}
MOTION
Frames: 16
Frame Time: 0.033333
-0.050749 -1.756759 0.943919 -179.083200 -0.424409 92.799898 7.716534 7.284768 1.778330 -5.860393 0.635434 13.339948 6.064851 5.545293 -23.390472 0.000000 -0.000000 0.000000 -8.261799 -5.664339 -5.867253 3.250434 -1.099341 28.480225 -4.368681 -5.037554 -28.861434 0.000000 -0.000000 0.000000 -7.162704 1.667654 -6.498158 2.159879 -1.761485 12.808963 1.401485 -0.470651 -0.914883 0.521057 1.073563 1.683432 4.668523 3.755482 0.084143 -18.042514 2.493555 5.034732 -66.699933 -2.502810 18.108581 -134.669526 -74.152538 168.706792 25.377356 -1.328606 -4.406942 16.313068 -0.633645 7.077392 69.407019 -2.406887 12.423384 -75.293164 84.648215 -61.881245 26.431030 12.843533 -33.455244 
-0.048263 -1.744838 0.937886 -179.821154 -0.705058 93.209591 7.823979 7.566184 2.814294 -6.508639 -0.538679 12.755016 5.542160 6.848634 -25.027860 0.000000 -0.000000 0.000000 -8.860488 -5.619072 -8.149573 3.926088 -1.059678 33.495110 -3.404851 -4.912298 -30.139893 0.000000 -0.000000 0.000000 -7.117421 0.835866 -4.169479 0.943567 -1.053057 10.226503 1.307836 -0.623486 0.324138 1.205968 2.197971 -0.040349 4.808917 3.400512 0.539131 -18.358052 1.719617 5.214318 -65.758873 -4.685456 18.945495 -136.730348 -74.682201 169.016260 26.003843 -0.568502 -10.674941 17.305543 -0.201002 8.010795 69.826042 -2.145868 13.615159 -58.751976 85.223493 -49.715721 13.805214 14.420557 -45.608956 
-0.045768 -1.732237 0.932166 179.414099 -0.962179 93.457809 7.922417 8.600844 3.438875 -6.823896 -0.691815 13.213256 6.026116 6.934202 -26.300744 0.000000 -0.000000 0.000000 -9.499177 -6.186024 -10.846919 4.122900 -1.411192 39.845413 -3.072838 -3.396670 -30.777639 0.000000 -0.000000 0.000000 -7.191167 0.215111 -1.745888 0.304289 -0.924106 9.413542 1.060144 -1.210003 1.170863 1.119802 3.323964 -2.860517 4.757210 3.724943 -0.186788 -18.948339 0.806248 4.741076 -65.241017 -7.170562 20.034623 -142.174349 -75.111472 172.220417 26.569181 0.362121 -18.026351 18.133267 -0.560366 8.077449 69.751032 -1.049225 14.634265 -44.753947 86.383976 -39.976767 0.884723 12.573739 -58.333402 
-0.042264 -1.713557 0.925555 178.351568 -1.143772 94.550601 7.612416 8.409504 4.126967 -6.517467 -0.022487 12.890469 6.610810 7.902254 -26.619669 0.000000 -0.000000 0.000000 -10.367997 -6.040211 -14.970304 5.086628 -1.565120 47.791757 -1.947586 -1.217236 -29.818872 0.000000 -0.000000 0.000000 -7.669855 -0.250821 0.116612 0.591460 -1.340876 8.300499 0.994938 -1.344272 0.631139 1.468547 5.700205 -2.095672 4.300539 3.345720 0.246586 -19.819637 -1.513555 3.973597 -65.348562 -9.370286 21.260609 -133.009015 -77.875520 162.489489 25.790530 -0.350042 -19.727847 19.174415 -0.566463 8.793015 69.661383 -2.020927 13.873082 -69.376520 83.722196 -64.910567 -1.153943 10.819163 -60.798813 
-0.040753 -1.700234 0.920966 178.428264 -1.268483 95.455728 7.955184 9.714400 4.531343 -6.597133 -0.218851 12.375154 6.040016 6.956512 -27.187352 0.000000 -0.000000 0.000000 -11.266607 -6.607643 -17.174553 5.640693 -2.441748 52.015872 -1.564660 0.801471 -29.033792 0.000000 -0.000000 0.000000 -7.748685 -0.953084 1.028012 0.953949 -2.055844 7.812063 0.948440 -1.861069 0.849427 1.620741 7.663977 -3.352166 3.918366 3.755416 0.631418 -20.109522 -2.644835 3.161291 -66.196352 -10.674713 21.684947 -123.715257 -79.437106 153.650264 23.297433 -2.542903 -19.506836 19.940207 -0.937829 8.540149 68.779422 -2.125364 13.178569 -83.534550 82.414196 -79.006787 -1.655501 11.538885 -61.012162 
-0.037961 -1.678038 0.913749 178.534328 -1.285775 96.370794 8.305441 9.636968 5.365917 -6.604392 0.248134 12.088070 6.107441 6.881394 -27.874933 0.000000 -0.000000 0.000000 -12.653874 -7.425258 -18.734675 6.815071 -3.540437 56.413229 -0.460616 3.369516 -27.743267 0.000000 -0.000000 0.000000 -7.474646 -1.643090 1.370796 1.787814 -3.752820 8.310645 0.708841 -2.688789 1.336573 1.776949 12.220385 -5.959849 3.497899 3.954727 2.184650 -19.626512 -4.560469 2.139268 -67.500213 -11.912262 21.926708 -106.636977 -81.530707 136.401894 19.819497 -4.453475 -20.160789 20.734858 -1.160292 8.015070 67.362921 -1.675564 12.748018 -100.985772 79.225049 -94.005651 -1.233589 11.784529 -58.653277 
-0.034798 -1.651455 0.905292 177.985326 -1.184480 97.777747 8.438712 9.981769 6.309927 -6.048867 1.008149 11.389633 6.819558 6.210354 -29.643740 0.000000 -0.000000 0.000000 -13.692809 -8.256891 -20.123822 7.694569 -3.981732 60.004534 0.906535 5.876539 -26.114981 0.000000 -0.000000 0.000000 -6.450436 -2.612944 1.728950 2.528555 -4.936214 7.374861 0.942526 -3.322054 1.046458 1.315848 13.217390 -4.278788 2.589771 5.667110 2.775102 -18.846784 -4.879299 1.739198 -68.732300 -12.195097 20.979716 -85.374593 -81.547787 113.219518 15.017796 -5.563667 -22.268252 19.826490 -2.110994 7.461005 66.865417 -0.939715 12.366651 -117.468342 75.539880 -107.712210 -1.087802 9.586356 -50.930311 
-0.029233 -1.622690 0.894452 176.229992 -0.899906 98.969264 8.839571 10.365635 7.365364 -5.935890 2.308557 11.908389 6.086957 6.197621 -31.054987 0.000000 -0.000000 0.000000 -14.423716 -8.685588 -21.279083 8.248353 -4.737527 62.959333 1.772283 7.551114 -24.601278 0.000000 -0.000000 0.000000 -5.635226 -3.200668 1.281444 3.830264 -5.869759 7.840854 1.108516 -3.773229 1.262010 1.383635 15.312242 -4.077800 0.556060 6.861025 3.915184 -17.425174 -4.536301 1.332453 -69.601487 -11.409652 19.478188 -68.442245 -81.780284 96.128618 12.816538 -6.212031 -21.257358 19.560142 -2.485102 6.131051 65.758925 1.927905 12.931929 -130.212521 71.967416 -116.103010 -0.915324 9.773729 -41.880086 
-0.022913 -1.592918 0.881494 174.456440 -0.381608 100.774365 8.740560 9.748972 5.733362 -5.156441 3.435587 16.880216 5.450820 7.375304 -33.142027 0.000000 -0.000000 0.000000 -14.496709 -8.665111 -22.084044 9.194636 -4.285291 64.792495 2.155851 8.991810 -24.237298 0.000000 -0.000000 0.000000 -4.256548 -3.427402 0.848715 5.287595 -6.691313 7.432012 1.559012 -4.529564 1.850896 1.128410 16.905083 -4.084495 -2.499671 8.943709 5.357924 -16.840326 -2.961128 1.848273 -70.121576 -8.578424 16.547116 -50.627246 -81.120102 77.290072 13.924921 -5.561794 -17.689293 19.427174 -2.648048 3.796358 64.017449 6.202667 14.762394 -145.490027 69.858063 -127.272512 -1.927232 9.218093 -30.625405 
-0.012564 -1.556987 0.865370 172.006309 -0.101478 102.093565 8.042329 5.943965 -0.406623 -5.267457 4.033000 33.054013 4.038626 10.643008 -33.883685 0.000000 -0.000000 0.000000 -14.369346 -6.996002 -19.492809 10.451702 -2.686678 63.419625 0.968059 8.130161 -28.979585 0.000000 -0.000000 0.000000 -3.229222 -1.984920 2.212882 7.355153 -7.210927 7.337558 1.943825 -4.733154 2.756190 1.517941 19.137908 -5.245842 -7.153172 10.670371 5.340745 -17.812190 0.258580 2.121631 -67.905271 -3.484249 13.049204 -31.516020 -76.175438 56.244318 12.734397 -4.818508 -18.001309 21.524828 -1.455287 0.390380 60.045977 13.446694 18.412647 -160.219762 68.917636 -136.472517 1.381108 9.317350 -16.641946 
-0.005025 -1.528181 0.853435 170.406012 -0.026041 103.006099 7.877102 0.580932 -10.076882 -5.184354 7.365439 54.457078 4.793036 12.114849 -26.429882 0.000000 -0.000000 0.000000 -14.167702 -4.853116 -15.952041 11.244017 -1.900100 60.093939 -2.133128 4.720472 -34.078285 0.000000 -0.000000 0.000000 -1.911001 0.763086 3.509821 8.349136 -6.680473 8.893321 2.082607 -3.884742 3.204720 1.118432 18.299466 -7.446700 -9.924457 10.285941 3.866011 -18.889627 0.832574 3.072537 -65.135213 0.390304 11.152129 -19.976760 -68.509834 44.280846 12.552266 -4.113640 -15.544276 23.161249 1.792225 -0.502185 54.658207 19.035182 19.270015 -165.653572 70.224759 -137.864628 3.251578 8.877969 -8.690376 
-0.001126 -1.496885 0.842024 168.866999 -0.141834 102.092794 7.415191 0.161217 -21.227492 -7.195495 7.127871 75.245982 6.176393 7.994296 -23.435869 0.000000 -0.000000 0.000000 -14.268772 -4.849081 -10.877276 11.124667 0.967374 57.079756 -3.506652 2.870868 -37.114182 0.000000 -0.000000 0.000000 0.497432 4.225266 8.107503 8.043234 -5.598468 11.354502 1.685859 -1.534958 2.553511 -0.740279 16.409969 -9.418952 -10.261065 8.573624 -0.449995 -19.265908 -1.258786 3.138044 -61.496516 5.236116 9.181419 -17.384643 -59.909160 40.888968 12.207447 -2.158280 -13.450195 23.010497 7.327406 -0.259659 47.905130 22.030639 15.577727 -160.722678 74.740012 -132.495834 3.022046 8.183735 -0.888542 
0.001168 -1.461814 0.832855 167.581922 -0.653659 101.260496 6.710771 -0.052740 -33.440068 -6.359466 10.723770 87.176424 6.894113 9.686491 -23.897971 0.000000 -0.000000 0.000000 -15.039620 -5.312976 -5.847173 11.231022 5.847449 53.791339 -3.037466 2.900476 -38.472452 0.000000 -0.000000 0.000000 3.011090 7.542184 15.983555 6.447113 -3.474277 9.557646 1.549032 0.501443 2.800869 -1.926088 12.728872 -12.235612 -9.386606 6.847314 -3.448919 -20.161112 -2.458149 4.205015 -56.237579 10.548715 7.340120 -18.813804 -53.701963 39.264437 11.690108 -2.199287 -14.367007 23.365693 11.221468 -0.154701 40.206119 24.065102 9.556764 -92.618565 82.439093 -68.104309 -0.069032 9.902794 9.394106 
0.005207 -1.421229 0.827470 165.690906 -1.041847 101.585881 7.525576 0.976091 -46.249103 -3.143872 16.496812 89.409218 8.123994 10.460365 -23.870800 0.000000 -0.000000 0.000000 -15.960335 -5.936622 -0.720890 10.721180 10.962900 47.665213 -2.446679 2.604739 -37.869008 0.000000 -0.000000 0.000000 3.442929 11.003010 20.659779 5.191558 -2.153254 10.402505 1.877976 2.516627 2.580418 -2.970914 9.467335 -13.195738 -7.946275 4.377180 -5.764870 -19.688109 -3.128269 5.424176 -53.320619 14.676361 7.239249 -20.018906 -49.472753 39.649735 13.061666 -1.484675 -15.246148 23.171681 16.565184 1.923696 30.785339 28.874220 0.061049 -22.210327 60.864300 -4.809918 1.179481 8.694622 17.441481 
0.008867 -1.372266 0.828216 164.100202 -0.985468 103.390058 9.126028 2.229062 -56.761309 -2.258362 23.282004 82.401536 5.260337 8.138427 -23.430585 0.000000 -0.000000 0.000000 -16.593941 -5.965779 4.255513 9.114174 14.556792 38.604058 -0.058101 2.401038 -34.646837 0.000000 -0.000000 0.000000 3.096696 14.422884 24.368347 3.811877 -0.484878 10.595801 2.250964 4.770233 2.049698 -3.230460 6.767876 -14.632756 -6.530121 1.653680 -6.792494 -19.118357 -4.170067 6.031816 -52.181686 16.683136 9.803103 -19.092425 -46.655582 39.859412 11.395222 -2.741109 -17.175085 22.699828 22.239847 2.991170 19.932594 32.714033 -10.898285 -13.367307 26.890117 -7.631649 6.950349 3.901928 21.234890 
0.015429 -1.315368 0.833219 162.904453 -0.172696 104.993295 8.948807 4.941774 -61.689733 -4.631248 26.385138 71.223851 4.437478 3.061008 -23.464281 0.000000 -0.000000 0.000000 -16.463807 -6.437146 8.107203 6.418292 17.457433 31.729083 4.346467 4.899594 -25.288929 0.000000 -0.000000 0.000000 3.051656 17.883729 28.372586 2.015292 1.239403 13.093045 2.250318 6.231304 -0.401125 -2.807232 3.467339 -16.078915 -3.619863 0.672380 -10.418269 -19.883974 -6.306713 5.964947 -53.036972 17.649425 10.976022 -15.763059 -46.202122 34.295537 14.149038 -2.839701 -18.881021 19.915449 25.332073 2.938146 15.707771 29.970903 -21.087219 -12.433384 8.364352 -36.241864 2.337441 2.506221 -0.243242 
